<svg fill="none" xmlns="http://www.w3.org/2000/svg" viewBox="0 0 1000 640">
  <path d="M16.32 558.06H1v-12.38h47.14v12.38H33v79.62H16.32v-79.63.01zm84.62-12.38h22.16c9.68 0 16.92 1.82 21.69 5.51 4.76 3.68 7.15 9.97 7.15 18.9 0 5.84-.85 10.6-2.55 14.25a15.61 15.61 0 01-8.81 8.03l12.83 45.31h-16.8l-11.01-42.13h-7.95v42.13h-16.72v-92h.01zm22.02 39.4c4.79 0 8.18-1.09 10.19-3.28 2-2.2 3-5.79 3-10.79 0-4.85-.89-8.38-2.67-10.56-1.77-2.2-4.97-3.31-9.6-3.31h-6.25v27.96h5.35l-.02-.02zm100.88-39.4h17.95l18.4 92h-15.57l-3.64-21.24h-16.01l-3.75 21.24h-15.79l18.41-92zm15.33 60.1l-6.24-38.63-6.26 38.61h12.5v.02zm80.13 26.1c-4.13-4.68-6.37-11.7-6.75-21.02l14.42-2.81c.23 5.8 1.16 10.26 2.78 13.32a8.12 8.12 0 007.67 4.6c2.58 0 4.48-.77 5.74-2.31a9.75 9.75 0 001.87-6.3c0-3.65-.82-6.71-2.45-9.21a44.5 44.5 0 00-7.66-8.41l-11.6-10.1a35.8 35.8 0 01-7.99-9.84c-1.79-3.36-2.66-7.51-2.66-12.42 0-7.28 2.12-12.88 6.35-16.82 4.24-3.94 10.1-5.9 17.6-5.9 7.88 0 13.53 2.24 16.92 6.75 3.41 4.5 5.38 10.6 5.91 18.23l-14.42 2.5c-.23-4.92-.9-8.66-1.98-11.25-1.11-2.56-3.25-3.85-6.43-3.85-2.56 0-4.6.8-6.07 2.38a8.82 8.82 0 00-2.22 6.24c0 2.97.61 5.42 1.82 7.39 1.2 1.98 3.1 4.14 5.68 6.47l11.47 10.1a50.23 50.23 0 0110.1 12.05 28.62 28.62 0 013.64 14.66c0 4.38-.96 8.29-2.9 11.7a20.63 20.63 0 01-8.1 8 24.4 24.4 0 01-12.06 2.9c-8.33 0-14.55-2.34-18.68-7.04zm97.29-86.2h16.69v38.4h18.74v-38.4h16.82v92h-16.82v-41.57h-18.74v41.56h-16.7v-91.99zm111.77 0h27.02c15.68 0 23.51 8.7 23.51 26.13 0 16.65-8.21 25-24.63 25h-9.21v40.87h-16.7v-92h.01zm23.18 39.3c4.54 0 7.6-.97 9.19-2.9 1.59-1.91 2.38-5.4 2.38-10.4 0-3.63-.26-6.41-.8-8.34a7.1 7.1 0 00-3.24-4.38c-1.62-.98-4.14-1.48-7.55-1.48h-6.47v27.49h6.47l.02.01zm91.3-39.3h17.95l18.4 92h-15.56l-3.65-21.24H644l-3.76 21.24h-15.8l18.42-92zm15.34 60.1l-6.24-38.63-6.25 38.61h12.49v.02zm75.64-60.1h11.71l22.37 52.48v-52.48h13.86v92h-11.13l-22.5-54.96v54.96h-14.3v-92zm107.34 0h21.69c7.43 0 13.26 1 17.5 3.01a17.71 17.71 0 019.04 9.2c1.77 4.13 2.65 9.61 2.65 16.4v33.53c0 6.95-.88 12.6-2.65 16.91a18.6 18.6 0 01-8.93 9.7c-4.15 2.16-9.8 3.25-16.92 3.25h-22.38v-92zm21.92 80.3c3.7 0 6.4-.65 8.08-1.92a8.78 8.78 0 003.18-5.4c.44-2.32.66-5.75.66-10.28v-35.22c0-4.09-.25-7.18-.78-9.3a7.3 7.3 0 00-3.36-4.72c-1.7-1.03-4.37-1.54-8-1.54h-5v68.38h5.22zm99.29-80.3h17.93l18.4 92h-15.56l-3.64-21.24h-16l-3.75 21.24h-15.8l18.42-92zm15.33 60.1l-6.26-38.63-6.24 38.61h12.5v.02z" fill="#444"/>
  <path d="M499.85 479.24a37.62 37.62 0 100-75.23 37.62 37.62 0 000 75.23zM743.6 288.01l-152.3-86.09c-10.59 42.17-47.14 80.55-48.92 82.39l-12.58 13.07-7.22-16.65c-9.3-21.5-12.02-51.7-8.16-74.6 7.12-42.45 38.16-80.38 63.41-113.86 27.15-36 59.82-67.88 98.4-91.66h-363.9c38.58 23.76 71.25 55.66 98.42 91.66 25.24 33.48 56.27 71.4 63.4 113.86 3.86 22.9 1.15 53.1-8.16 74.6l-7.22 16.64-12.58-13.06c-1.77-1.84-38.33-40.22-48.94-82.39l-152.3 86.1 131.16 80.82 118.18-78.2 118.18 78.2 131.14-80.83zm-348.7 14.77a23.28 23.28 0 110-46.56 23.28 23.28 0 010 46.56zm198.78 0a23.28 23.28 0 110-46.56 23.28 23.28 0 010 46.56z" fill="#222"/>
  <path d="M773.6 300.1L592.39 404.57l-95.94-85.84-.43-.39-.35.39-95.94 85.84L218.49 300.1l-15.21 56.75 127.12 57.06 109.14 21.77c.42-2.5 1.03-4.98 1.82-7.4a60 60 0 01118.03 6.04l102.32-20.4 127.1-57.03-15.2-56.77v-.02zM413.18 150.33l-168.71 52.73-18.13 67.7 188.8-106.7a53.67 53.67 0 00-1.96-13.71v-.02zm177 0l168.71 52.73 18.11 67.7-188.77-106.7c.01-4.69.76-9.3 1.95-13.71v-.02zM747.88 162.45l1.38-3.64c4.85-12.8 9.8-25.56 14.73-38.33 3.74-9.65 7.5-19.3 11.2-28.97 2.44-6.41 5.55-12.83 8.58-19.04 8.32-17.09 16.16-33.21 10.98-48.46-2.56-7.57-10.26-15.35-19.57-19.84-8.32-4-16.85-4.95-23.38-2.58-64 23.13-106.7 66.7-151.12 125l-1.06 1.42 151.74 47.42-3.48-12.98zm-493.9-3.64l1.37 3.64-3.48 12.96 151.74-47.4-1.06-1.42c-44.42-58.3-87.12-101.87-151.13-125-6.52-2.37-15.05-1.42-23.37 2.58-9.3 4.47-16.99 12.27-19.57 19.84-5.17 15.23 2.66 31.37 10.97 48.44 3.03 6.23 6.16 12.65 8.61 19.04 3.7 9.7 7.45 19.37 11.2 29.04 4.93 12.75 9.88 25.5 14.73 38.28h-.02z" fill="#444"/>
</svg>
